# xmcd
#
# Track frame offsets: 
#        150
#        14277
#        30709
#        44977
#        59762
#        70775
#        95475
#        112428
#        131322
#        146222
#        164976
#        176867
#
# Disc length: 2542 seconds
#
# Revision: 0
# Processed by: cddbd v1.5.2PL0 Copyright (c) Steve Scherf et al.
# Submitted via: ExactAudioCopyFreeDBPlugin 1.0
#
DISCID=c509ec0c
DTITLE=Puss N Boots - No Fools, No Fun
DYEAR=2014
DGENRE=Country
TTITLE0=Leaving London
TTITLE1=Bull Rider (Live)
TTITLE2=Twilight
TTITLE3=Sex Degrees Of Separation
TTITLE4=Don't Know What It Means
TTITLE5=Down By The River (Live)
TTITLE6=Tarnished Angel (Live)
TTITLE7=Jesus, Etc.
TTITLE8=Always
TTITLE9=Gto
TTITLE10=Pines
TTITLE11=You'll Forget Me
EXTD=
EXTT0=
EXTT1=
EXTT2=
EXTT3=
EXTT4=
EXTT5=
EXTT6=
EXTT7=
EXTT8=
EXTT9=
EXTT10=
EXTT11=
PLAYORDER=
